<svg id="Layer_1" data-name="Layer 1" xmlns="http://www.w3.org/2000/svg" viewBox="0 0 2141.3 2486.85"><title>EpicLogo</title><path d="M969.72,753.88V514.75c0-38-17.86-55.9-54.35-55.9H855.59V809.78h59.78C951.86,809.78,969.72,791.93,969.72,753.88Z"/><polygon points="809.01 1684.78 809.01 1684.78 807.45 1680.9 805.9 1677.02 804.35 1673.14 802.79 1669.26 801.24 1665.37 799.69 1661.49 798.14 1657.61 796.58 1653.73 795.03 1649.85 793.48 1645.96 791.93 1642.08 790.37 1638.2 788.82 1634.32 787.27 1630.43 785.72 1626.55 784.16 1622.67 782.61 1618.79 781.06 1614.91 779.5 1611.03 777.95 1607.14 776.4 1603.26 774.85 1599.38 773.29 1603.26 771.74 1607.14 770.19 1611.03 768.63 1614.91 767.08 1618.79 765.53 1622.67 763.98 1626.55 762.42 1630.43 760.87 1634.32 759.32 1638.2 757.76 1642.08 756.21 1645.96 754.66 1649.85 753.11 1653.73 751.55 1657.61 750 1661.49 748.45 1665.37 746.89 1669.26 745.34 1673.14 743.79 1677.02 742.24 1680.9 740.68 1684.78 739.13 1688.66 805.9 1688.66 809.01 1684.78"/><path d="M1947.21,0H194.1C52.8,0,0,52.8,0,194.88V1909.94a406.1,406.1,0,0,0,2.33,45c3.1,31,3.88,61.33,32.61,95.5,3.1,3.1,32.61,25.62,32.61,25.62,15.52,7.76,26.39,13.2,44.25,21l862.58,361.8c45,20.19,63.66,28.73,96.27,28,32.61.78,51.24-7,96.28-28l862.57-361.8c17.86-7,28.73-13.2,44.26-21,0,0,29.5-21.74,32.61-25.62,28.72-34.17,29.5-64.45,32.61-95.5a406.21,406.21,0,0,0,2.32-45V194.88C2141.3,52.8,2089.29,0,1947.21,0ZM1180.12,330.75h145.19v952.64H1180.12ZM1118,1621.89l2.33,3.11,2.33,3.88L1125,1632l2.33-3.11,2.33-3.88,2.33-3.11,2.33-3.88,2.33-3.1L1139,1611l2.33-3.1,2.32-3.88,2.33-3.11,1.56-3.1,2.33-3.89,2.32-3.1,2.33-3.88,2.33-3.11,2.33-3.88,2.33-3.11,2.33-3.88,2.33-3.1,2.33-3.11,2.33-3.88,2.33-3.11,2.33-3.88,2.33-3.11,2.33-3.88,1.55-3.1,2.33-3.11,2.33-3.88,2.33-3.11,2.32-3.88,2.33-3.1,2.33-3.89,2.33-3.1,2.33-3.88,2.33-3.11h80.75v288l-17.86.77h-72.21v-170l-2.33,3.11-2.33,3.88-2.32,3.1-2.33,3.11-2.33,3.88-2.33,3.11-2.33,3.1-2.33,3.88-2.33,3.11-2.33,3.11-2.33,3.1-2.33,3.88L1163,1677l-2.33,3.1-2.33,3.89-2.32,3.1-2.33,3.11-2.33,3.88-1.56,3.1-2.32,3.11-2.33,3.88-2.33,3.11-2.33,3.1-2.33,3.88-2.33,3.11-1.55,3.11-2.33,3.1-2.33,3.88-2.33,3.11-2.33,3.1-1.55,3.89-2.33,3.1-2.33,3.11-2.33,3.88-2.33,3.11h-1.55l-2.33-3.89-2.33-3.1-2.33-3.88-2.33-3.11-2.33-3.88-2.33-3.11-2.33-3.88-2.33-3.1-2.33-3.89-1.55-3.1-2.33-3.88-2.33-3.11-2.33-3.88,3.89-3.88-2.33-3.89-2.33-3.1-2.33-3.88-2.33-3.11-2.33-3.88-2.33-3.11-1.55-2.33-2.33-3.1-2.33-3.88-2.33-3.11-2.33-3.88-2.33-3.11-2.33-3.88-1.55-2.33-2.33-3.88-2.33-3.1-2.33-3.89-2.33-3.1-2.33-3.88-2.33-3.11v169.25H967.39v-288h80.75l2.33,3.11,2.33,3.88,2.32,3.1,2.33,3.89,2.33,3.1,2.33,3.88,2.33,3.11,2.33,3.88,2.33,3.11,2.33,3.1,2.33,3.88,2.33,3.11,2.33,3.88,2.33,3.11,2.32,3.88,2.33,3.11,2.33,3.1,2.33,3.88,2.33,3.11,2.33,3.88,2.33,3.11,2.33,3.88,2.33,3.1,1.55,3.89,2.33,3.1,1.55,3.11,2.33,3.88,2.33,3.1,2.33,3.89,2.33,3.1ZM711.18,330.75H938.66c118,0,176.25,58.23,176.25,177V760.87c0,118.79-58.23,177-176.25,177H856.37v345.5H711.18Zm-395.19,0H639v132H461.18V732.14H632v132H461.18V1151.4H641.3v132H316Zm274.07,1434-2.33,1.55h0l-3.1,2.33-3.11,2.33-3.1,2.33-3.11,2.33L572.2,1778l-3.1,2.33-3.11,2.33-3.88,2.33-3.88,2.33-3.88,2.33-3.88,1.55-3.89,2.33L542.7,1795l-3.88,1.55-3.88,1.56-3.88,1.55-3.89,1.55-3.88,1.56-3.88,1.55-3.88,1.55-3.88,1.55-3.89.78-3.88.78-3.88.77-3.88.78-3.88.78-4.66.77-3.88.78-4.66.77-3.88.78-4.66.78H458.07l-3.88-.78-4.66-.78-3.88-.77-3.88-.78-3.88-.77-3.88-.78-3.89-.78-3.88-.77-3.88-.78-3.88-.78-3.88-.77-3.89-1.56-3.88-1.55L403,1802l-3.88-1.55-3.88-1.56-3.89-1.55-3.88-1.55-3.88-2.33-3.11-1.55-3.88-2.33-3.1-2.33-3.11-2.33-3.1-2.33-3.11-2.33L361,1778l-3.1-2.33-3.11-2.33-3.1-3.1-3.11-2.33-3.1-3.11-3.11-3.1-2.33-3.11-2.33-3.11-2.33-3.1-2.33-3.11-2.32-3.1-2.33-3.11-1.56-3.1-2.33-3.88-2.33-3.11-1.55-3.88-1.55-3.88-1.55-3.89-1.56-3.88-1.55-3.1-1.55-3.89-.78-3.88-1.55-3.88-.78-3.88-1.55-3.88-.78-3.89v-3.88l-.77-3.88v-3.88l-.78-3.88v-33.39l.78-4.66.77-3.88.78-3.88.78-3.88,1.55-3.89.78-3.88,1.55-3.88,1.55-3.88,1.55-3.88,1.56-3.89,1.55-3.88,1.55-3.88,1.55-3.88,1.56-3.88,2.33-3.89,2.33-3.1,1.55-3.11,2.33-3.1,2.33-3.11,2.33-3.1,2.33-3.11,2.32-3.1,2.33-3.11,3.11-3.11,2.33-3.1,3.1-3.11,3.11-3.1,3.11-2.33,3.1-3.11,3.11-2.33,3.1-2.33,3.11-2.32,3.1-2.33,3.11-2.33,3.1-2.33,3.89-2.33,3.88-2.33,3.88-2.33,3.88-1.55,3.88-1.56,3.89-2.32,3.1-1.56,3.88-1.55,3.89-1.55,3.88-.78,3.88-1.55,3.88-.78,3.88-1.55,3.89-.78,3.88-.77,3.88-.78,3.88-.78,3.88-.77,3.89-.78,3.88-.78h16.3l4.66.78,4.66.78h3.88l3.88.77,4.66.78,3.88.78,3.89.77,3.88.78,3.88.78,3.88.77,3.88.78,3.89,1.55,3.88.78,3.1,1.55,3.89,1.55,7,3.11,3.88,1.55,3.89,2.33L552,1521l3.1,2.33,3.89,2.33,3.1,2.33,3.88,2.33,3.11,2.33,3.11,2.33,3.1,2.33,3.11,2.33,3.1,3.1,3.11,2.33-2.33,3.11-3.11,3.1-2.33,3.11-3.1,3.1-2.33,3.11-2.33,3.1-3.11,3.11-2.33,3.11-2.32,3.1-3.11,3.11-2.33,3.1-3.11,3.11-2.32,3.1-2.33,3.11-3.11,3.1-2.33,3.11-3.1,3.11-2.33,3.1-3.11-2.33-3.1-3.1-3.11-2.33-3.11-2.33-3.1-2.33-3.11-2.33-3.1-2.33-3.88-2.33-3.11-1.55-3.11-1.55-3.1-1.56-3.88-1.55-3.89-1.55-3.88-.78-3.88-.78-3.88-.77-3.88-.78-4.66-.77-4.66-.78h-8.54l-3.88.78-3.88.77-3.89.78-3.88.77-3.88,1.56-3.88,1.55-3.11,9.32-3.88,1.55-3.11,2.33-3.1,2.33-3.11,2.33-3.1,2.33-3.11,2.33-3.1,2.32-2.33,3.11-3.11,3.11-2.33,3.1-2.33,3.11-2.33,3.1-1.55,3.88-2.33,3.11-1.55,3.88-1.55,3.88-1.56,3.89-1.55,3.88-.78,3.88-.77,3.88-.78,4.66v28.73l.78,3.88.77,3.88.78,3.88,1.55,3.89,4.66-1.56,1.56,3.88,1.55,3.89,2.33,3.88,3.88,6.21,2.33,3.11,2.33,3.1,3.1,3.11,2.33,3.1,3.11,2.33,3.1,2.33,3.11,2.33,3.1,2.33,3.11,2.33,3.88,1.55,3.88,1.55,3.89,1.56,3.88,1.55,3.88,1.55,3.88.78,3.88.77,3.89.78,4.65.78h7l4.66-.78,4.66-.78,3.88-.77,3.88-.78,3.88-.77,3.89-.78,3.88-.78,3.88-1.55,3.11-1.55,3.88-1.56,3.1-1.55,3.11-2.33v-38.82H462v-57.45h128.1Zm31.06,34.16,3.1-7,1.56-3.89,1.55-3.88,3.11-7,1.55-3.88,1.55-3.88,1.55-3.88,1.56-2.33,1.55-3.88,1.55-3.89,1.55-3.88,1.56-3.88,1.55-3.88,1.55-3.88,1.56-3.89,1.55-3.88,1.55-3.88,1.55-3.88,1.56-3.88,3.1-7,1.56-3.88,1.55-3.88,1.55-3.89L663,1698l1.56-3.88,1.55-3.88,1.55-3.88,1.55-3.89,1.56-3.88,1.55-3.88,1.55-3.88,1.56-3.88L677,1663l1.55-3.88,1.55-3.88,1.56-3.88,1.55-3.88,1.55-3.89,1.55-3.88,1.56-3.88,1.55-3.88,1.55-3.88,1.56-3.89,1.55-3.88,1.55-3.88,1.55-3.88,1.56-3.88,1.55-3.89,1.55-3.88,1.56-3.88,1.55-3.88,1.55-3.88,3.11-7,1.55-3.88,1.55-3.89,1.55-3.88,1.56-3.88,1.55-3.88,1.55-3.88,1.56-3.89,1.55-3.88,1.55-3.88,1.55-3.88.78-3.88,1.55-3.89,1.56-3.88,1.55-3.88,1.55-3.88,1.55-3.88,1.56-3.89,1.55-3.88,1.55-3.88,3.11-7,1.55-3.88h73l1.56,3.88,1.55,3.88,1.55,3.89,1.55,3.88,1.56,3.88,1.55,3.88,1.55,3.88,1.55,3.89,1.56,3.88,1.55,3.88,1.55,3.88,1.56,3.88,1.55,3.89,1.55,3.88,1.55,3.88,1.56,3.88,1.55,3.88,1.55,3.89,1.56,3.88,1.55,3.88,1.55,3.88,1.55,3.88,1.56,3.89,1.55,3.88,1.55,3.88,1.55,3.88,1.56,3.88,1.55,3.89,1.55,3.88,1.56,3.88,3.1,7,1.55,3.88,1.56,3.88,1.55,3.88,1.55,3.89,1.56,3.88,1.55,3.88,1.55,3.88,1.55,3.88,1.56,3.89,1.55,3.88,1.55,3.88,1.55,3.88,1.56,3.88,1.55,3.89,1.55,3.88,1.56,3.88,1.55,3.88,1.55,3.88,1.55,3.89,1.56,3.88,1.55,3.88,1.55,3.88,1.56,3.88,1.55,3.89,1.55,3.88,1.55,3.88,1.56,3.88,1.55,3.88,1.55,3.89,1.55,3.88,1.56,3.88,1.55,3.88,1.55,3.88,1.56,3.89L920,1757l1.55,3.88,1.55,3.88,1.56,3.88,1.55,3.89,1.55,3.88,1.55,3.88,1.56,3.88,1.55,3.88,1.55,3.89,1.56,3.88,1.55,3.88,3.1,7-7.76-3.11H855.59l-1.55-3.88-1.56-3.88-1.55-3.88-1.55-3.89-1.55-3.88-1.56-3.88-1.55-3.88-1.55-3.88-1.55-3.89-1.56-3.88-1.55-3.88L837,1757l-1.56-3.88-1.55-3.89-1.55-3.88H720.5l-1.56,3.88-1.55,3.89-1.55,3.88-1.55,3.88-1.56,3.88-3.1,7-1.56,3.88-1.55,3.88-1.55,3.89-1.55,3.88-1.56,3.88-1.55,3.88-1.55,3.88-1.55,3.88H619.57Zm443.32,485.25L657.61,2144.41h830Zm493-480.59H1327.64v-288h227.48v65.22H1403v47.36H1539.6v61.33H1403v48.91h154.5Zm-156.83-689.44V499.22c0-118.79,58.23-177,176.24-177h70.66c118,0,174.68,57.45,174.68,175.46V692.55H1680.12V506.21c0-38-17.85-55.9-54.34-55.9h-24.07c-38,0-55.9,17.86-55.9,55.9v601.71c0,38,17.85,55.9,55.9,55.9h27.17c36.49,0,54.35-17.86,54.35-55.9V892.08h141.3v222.05c0,118.79-58.23,177-176.24,177h-71.43C1458.85,1291.15,1400.62,1232.92,1400.62,1114.13Zm434,614.91-5.44-4.66-.77,3.88-.78,4.66-.78,3.88-1.55,3.88-.78,3.89-1.55,3.88-1.55,3.88-1.55,3.1-1.56,3.89-2.33,3.1-2.33,3.11-2.32,3.1-2.33,3.11-2.33,3.1-3.11,3.11-2.33,2.33-3.1,3.1-3.11,2.33-3.1,2.33-3.11,1.56-3.11,2.33-3.88,2.32-3.88,1.56-3.88,2.33-3.88,1.55-3.89,1.55-3.88,1.55V1802l-3.88,1.55-3.88.78-7,1.55-3.88.78-3.88.77-3.88.78-3.89.78-4.66.77-3.88.78h-15.53l-3.88-.78h-4.66l-3.88-.77-3.88-.78-4.66-.78-3.88-.77-3.88-.78-3.88-.78-3.89-.77-3.88-.78-3.88-.78-3.88-1.55-3.88-.77-3.89-1.56-3.88-1.55-3.88-1.55-3.88-1.56-3.88-1.55-3.89-1.55-3.88-1.55L1625,1788l-3.88-1.55-3.88-1.55-3.89-2.33-3.1-2.33-3.88-2.33-3.11-2.33-3.1-2.33-3.11-2.33-3.11-2.33-3.1-2.33-3.11-2.33-3.1-2.32-3.11-3.11,2.33-3.11,3.11-3.1,2.33-3.11,3.1-3.1,2.33-3.11,2.33-3.1,3.11-3.11,2.32-3.1,3.11-3.11,2.33-3.11,3.11-3.1,2.32-3.11,2.33-3.1,3.11-3.11,2.33-3.1,3.1-3.11,2.33-3.1,3.11,2.32,3.88,2.33,3.11,2.33,3.88,2.33,3.1,2.33,3.89,2.33,3.1,2.33,3.88,1.55,3.11,2.33,3.88,1.55,3.88,1.56,3.88,1.55,3.89,1.55,3.88,1.56,3.88,1.55,3.88,1.55,3.88,1.55,3.89.78,7.76,1.55,4.66.78,3.88.78h3.88l4.66.77h8.54l4.66-.77,3.88-.78,3.88-.78,3.89-.77,3.1-1.56,3.11-1.55,3.1-2.33,2.33-3.1,1.55-3.11,1.56-3.88.77-3.88v-.78l-.77-4.66-1.56-3.88-2.32-3.11-3.11-2.32-3.11-2.33-3.1-1.56-3.88-1.55-3.88-1.55-4.66-2.33-3.11-.78-3.1-.77-3.89-1.56-3.88-.77-3.88-1.56-3.88-.77-4.66-1.56-3.88-.77-4.66-1.55-3.88-.78-3.89-1.55-3.88-.78-3.88-1.55-3.88-1.56-3.88-.77-3.89-1.55-3.88-1.56-3.88-1.55-4.66-1.55-3.88-1.56-3.88-1.55-3.88-1.55-3.89-2.33-3.88-2.33-3.1-2.33-3.89-2.33-3.1-2.33-3.11-2.33-3.1-2.33-3.11-3.1-3.1-3.11-2.33-3.1-2.33-3.11-2.33-3.1-2.33-3.11-2.33-3.88-1.55-3.11-1.55-3.1-.78-3.88-1.55-3.11-.78-3.88-.78-3.88-.77-3.89-.78-3.88-.78-4.66V1587l.78-3.88.78-3.89.77-3.88.78-3.88.78-3.88,1.55-3.88.78-3.89,1.55-3.88,1.55-3.88,1.55-3.88,2.33-3.88,2.33-3.89,2.33-3.1,2.33-3.11,3.11-3.1,3.1-3.11,3.11-3.1,3.1-3.11,3.11-2.33,3.1-2.33,3.11-2.33,3.11-2.33,3.88-2.33,3.88-1.55,3.88-2.33,3.88-1.55,3.89-1.55,3.88-1.56,3.88-1.55,3.1-.78,3.89-.77,3.88-.78,3.88-.77,3.88-.78,3.88-.78,3.89-.77,3.88-.78,3.88-.78h17.08l4.66.78,4.66.78h3.88l4.66.77,3.88.78,4.66.78,3.88.77,3.88.78,3.88.77,3.89.78,3.88.78,3.88,1.55,3.88,1.55,3.88.78,3.89,1.55,3.88,1.55,3.88,1.56,3.88,1.55,3.88,1.55,3.89,2.33,3.1,1.56,3.88,2.32L1809,1521l3.1,2.33,3.88,2.33,3.11,2.33,3.1,2.33,3.11,2.33,3.11,2.33-2.33,3.1-2.33,3.11-2.33,3.11-2.33,3.1-2.33,3.88-2.33,3.11-2.33,3.1-2.33,3.11-2.33,3.11-2.33,3.1-2.33,3.11-2.32,3.1-2.33,3.88-2.33,3.11-2.33,3.1-7.77,17.09-2.33,3.1-3.1-2.33-3.88-2.33-3.11-2.33-3.1-2.33-3.89-1.55-3.1-2.33-3.88-1.55-3.11-1.55-3.88-1.56-3.11-1.55-3.88-1.55-3.1-1.55-4.66-1.56-3.88-1.55-3.89-1.55-3.88-.78-2.33,1.55-3.88-.77-3.88-.78-3.88-.78-3.89-.77h-8.54l-4.65.77-3.89.78-3.88.78-3.1,1.55-3.11,1.55-3.88,3.11-2.33,3.88-1.55,3.88-.78,3.88v.78l.78,5.44,1.55,4.65,1.55,2.33,3.11,3.11,3.88,2.33,3.11,2.33,3.88,1.55,4.66,1.55,4.65,1.56,3.11.77,3.1,1.55,3.89.78,3.88,1.55,3.88.78,4.66,1.55,4.66,1.56,4.66,1.55,4.65.77,3.89,1.56,4.66,1.55,3.88.78,3.88,1.55,3.88,1.55,3.88,1.56,3.88,1.55,3.89,1.55,3.88.78,4.66,1.55,3.88,2.33,3.88,1.55,3.88,2.33,3.89,2.33,3.88,2.33,3.1,2.33,3.11,2.33,3.1,2.33,3.11,3.1,3.11,3.11,3.1,3.1,3.11,3.11,2.33,3.11,2.32,3.88,2.33,3.1,2.33,3.88,1.56,3.11,1.55,3.88.77,3.88.78,3.89,1.55,7.76.78,3.88.78,4.66Z"/></svg>