<svg id="Layer_1" data-name="Layer 1" xmlns="http://www.w3.org/2000/svg" viewBox="0 0 58.84 46.25"><defs><style>.cls-1{fill-rule:evenodd;}</style></defs><title>GogLogo</title><path class="cls-1" d="M14.19,33.31H5.42a1.25,1.25,0,0,0-1.24,1.25h0v6.25h0a1.25,1.25,0,0,0,1.24,1.25h8.77v4.17H3.25A3.23,3.23,0,0,1,0,43H0V32.37a3.22,3.22,0,0,1,3.24-3.22H14.19Z" transform="translate(0 0)"/><path class="cls-1" d="M17.36,21.69A3.3,3.3,0,0,1,14.08,25H0V20.75H11.87a1.27,1.27,0,0,0,1.26-1.27v-14a1.26,1.26,0,0,0-1.26-1.26H5.49A1.26,1.26,0,0,0,4.23,5.49h0v6.36a1.25,1.25,0,0,0,1.25,1.26h5.1v4.22H3.28A3.27,3.27,0,0,1,0,14.08H0V3.28A3.28,3.28,0,0,1,3.28,0H14.07a3.28,3.28,0,0,1,3.29,3.28Z" transform="translate(0 0)"/><path class="cls-1" d="M58.83,46.24H54.66V33.31H51.73a1.24,1.24,0,0,0-1.24,1.24h0V46.24H46.32V33.31H43.38a1.25,1.25,0,0,0-1.24,1.25V46.25H38V32.37a3.24,3.24,0,0,1,3.24-3.23H58.83Z" transform="translate(0 0)"/><path class="cls-1" d="M58.84,21.69A3.29,3.29,0,0,1,55.57,25H41.49V20.75H53.35a1.28,1.28,0,0,0,1.27-1.27v-14a1.27,1.27,0,0,0-1.27-1.26H47A1.27,1.27,0,0,0,45.72,5.5v6.36A1.27,1.27,0,0,0,47,13.13h5.09v4.22h-7.3a3.27,3.27,0,0,1-3.28-3.27h0V3.28A3.28,3.28,0,0,1,44.77,0H55.56a3.28,3.28,0,0,1,3.28,3.28Z" transform="translate(0 0)"/><path class="cls-1" d="M33.86,5.51v6.35a1.25,1.25,0,0,1-1.25,1.27H26.24A1.26,1.26,0,0,1,25,11.86V5.5a1.26,1.26,0,0,1,1.26-1.27h6.37A1.25,1.25,0,0,1,33.86,5.5Zm1-5.51H24a3.28,3.28,0,0,0-3.28,3.28h0V14.07A3.28,3.28,0,0,0,24,17.36h10.8a3.29,3.29,0,0,0,3.28-3.28V3.28A3.28,3.28,0,0,0,34.82,0" transform="translate(0 0)"/><path class="cls-1" d="M30.46,34.56v6.26a1.24,1.24,0,0,1-1.23,1.25H22.94a1.24,1.24,0,0,1-1.24-1.25V34.56a1.24,1.24,0,0,1,1.24-1.25h6.29a1.24,1.24,0,0,1,1.23,1.24Zm.94-5.42H20.77a3.23,3.23,0,0,0-3.24,3.23h0V43a3.23,3.23,0,0,0,3.23,3.23H31.4A3.23,3.23,0,0,0,34.63,43V32.37a3.23,3.23,0,0,0-3.23-3.23" transform="translate(0 0)"/></svg>