<svg xmlns="http://www.w3.org/2000/svg" viewBox="0 0 106.83 82.43"><title>PlaystationLogo</title><g id="Layer_3" data-name="Layer 3"><path d="M17.53,66.62c2.59.85,7.25.61,10.43-.53L36.57,63V72l-1.71.28A56.45,56.45,0,0,1,8,70.13C-.41,67.76-1.81,62.82,2,60c3.56-2.63,9.59-4.61,9.59-4.61l25-8.86V56.6L18.62,63C15.44,64.17,15,65.78,17.53,66.62Z"/><path d="M105.88,63.09c-2.09,2.63-7.2,4.51-7.2,4.51l-38,13.67V71.19l28-10c3.17-1.13,3.67-2.74,1.08-3.58s-7.24-.61-10.42.53L60.65,64.73V54.28l1.07-.36a64.26,64.26,0,0,1,13-2.76A55.57,55.57,0,0,1,98.83,54C107,56.64,108,60.46,105.88,63.09Z"/><path d="M64.27,45.94V20.18c0-3-.56-5.8-3.4-6.59-2.17-.71-3.52,1.32-3.52,4.34v64.5L39.94,76.91V0a211.19,211.19,0,0,1,24,6.56c14.74,5.07,19.73,11.37,19.73,25.55C83.65,45.93,75.12,51.18,64.27,45.94Z"/></g></svg>