<svg id="Camada_1" data-name="Camada 1" xmlns="http://www.w3.org/2000/svg" viewBox="0 0 881.17 276.36"><defs><style>.cls-1{fill:#fff;}</style></defs><title>RegularLogo</title><path class="cls-1" d="M864.57,276.36H700.05a116.11,116.11,0,0,1-47.13-11.72c-21.95-11-48.11-34.37-48.11-83.52a9.3,9.3,0,0,1,9.3-9.3h43a33.67,33.67,0,0,0,0-67.34h-43a9.3,9.3,0,0,1-9.3-9.3V16.6A16.61,16.61,0,0,1,621.4,0H864.57a16.61,16.61,0,0,1,16.6,16.6V259.77A16.61,16.61,0,0,1,864.57,276.36ZM623.79,190.42c2.28,26.73,14.67,46,36.91,57.31a98.47,98.47,0,0,0,39.37,10h162.5V18.6H623.41V85.88h33.67a52.27,52.27,0,0,1,0,104.54Z"/><path class="cls-1" d="M52.72,116.79h0a6.73,6.73,0,0,1-5.34-2.62L15.79,73.33h-2V110A6.75,6.75,0,0,1,7,116.79H6.76A6.76,6.76,0,0,1,0,110V25.42a6.57,6.57,0,0,1,6.57-6.57H20.86c2.61,0,4.73,0,6.38.15s3,.22,4,.36a19.9,19.9,0,0,1,2.32.44c.53.14,1,.26,1.52.36A26.2,26.2,0,0,1,49.69,29q5.81,6.81,5.8,17a26.68,26.68,0,0,1-3.91,14.49,23.47,23.47,0,0,1-4.86,5.72,26.32,26.32,0,0,1-6.44,4c-1.65.78-3,1.38-4,1.81a27.94,27.94,0,0,1-3.55,1.23L58.07,105.9A6.76,6.76,0,0,1,52.72,116.79ZM27.67,60a13.08,13.08,0,0,0,4.06-.43c.77-.29,1.83-.78,3.19-1.45a6.79,6.79,0,0,0,2.53-2c.44-.68,1-1.54,1.81-2.61a14.18,14.18,0,0,0,2.18-7.68,13,13,0,0,0-2.18-7.24,17,17,0,0,0-4.92-4.93,12.22,12.22,0,0,0-6.23-1.3H13.76V59.86Z"/><path class="cls-1" d="M123.41,32.34H85.81V57.26H123A6.74,6.74,0,0,1,129.71,64v.14A6.74,6.74,0,0,1,123,70.88H85.81v32.45H123a6.74,6.74,0,0,1,6.74,6.74h0A6.73,6.73,0,0,1,123,116.8H78.62a6.57,6.57,0,0,1-6.57-6.57V25.44a6.58,6.58,0,0,1,6.57-6.58h44.79a6.73,6.73,0,0,1,6.73,6.74h0A6.73,6.73,0,0,1,123.41,32.34Z"/><path class="cls-1" d="M234.86,39.51a7.07,7.07,0,0,1-9.33.46,48.72,48.72,0,0,0-11.88-7,42.79,42.79,0,0,0-17.39-3.77,41.24,41.24,0,0,0-19.84,5.07,35.75,35.75,0,0,0-14.64,13.91,35.27,35.27,0,0,0-5.21,18.4,35.91,35.91,0,0,0,5.36,19,37.21,37.21,0,0,0,14.78,14.2,42.79,42.79,0,0,0,20.86,5.21q13.76,0,23.18-7.67a30.54,30.54,0,0,0,4.13-4.06,35.41,35.41,0,0,0,3.26-4.64A33.05,33.05,0,0,0,231.33,80H208.65a6.73,6.73,0,0,1-6.74-6.73h0a6.74,6.74,0,0,1,6.74-6.74h35.91a2,2,0,0,1,2,2.12h0v.11q0,22.56-13.48,36t-35.64,13.33q-13.75,0-24.19-4.49a53.59,53.59,0,0,1-18.69-13.91,49.35,49.35,0,0,1-12.17-32.89,50.57,50.57,0,0,1,7.1-25.93A50,50,0,0,1,168.59,22.2,54.61,54.61,0,0,1,196,15.39a60,60,0,0,1,11.89,1.16,65.92,65.92,0,0,1,11.3,3.33,67.89,67.89,0,0,1,15.09,9,7.08,7.08,0,0,1,.61,10.67Z"/><path class="cls-1" d="M318.64,18.14A6.8,6.8,0,0,1,325.45,25V76.82a106.08,106.08,0,0,1-.58,11.73A46.93,46.93,0,0,1,323,97.82q-2.61,8.27-10.57,14.49a30.1,30.1,0,0,1-19.13,6.23q-11.88,0-20.57-5.79A28.37,28.37,0,0,1,261,97.25a43.83,43.83,0,0,1-1.37-8q-.51-5.07-.51-12.46V25a6.81,6.81,0,0,1,6.81-6.81h.14A6.81,6.81,0,0,1,272.86,25V76.82c0,4.15,0,7.1.07,8.83a26.11,26.11,0,0,0,.22,3.34l.15.14a17.44,17.44,0,0,0,2.75,8.26,16.62,16.62,0,0,0,7.1,5.51,21.48,21.48,0,0,0,9.71,2.31,18.45,18.45,0,0,0,14.34-6.66A22.78,22.78,0,0,0,311,90.87a35.12,35.12,0,0,0,.58-4.2q.29-3,.29-9.85V25a6.8,6.8,0,0,1,6.8-6.81Z"/><path class="cls-1" d="M351.63,103.33H381A6.66,6.66,0,0,1,387.7,110h0a6.66,6.66,0,0,1-6.66,6.67H345.32a7.31,7.31,0,0,1-7.31-7.32V25.53a6.81,6.81,0,0,1,6.81-6.81h0a6.81,6.81,0,0,1,6.81,6.81Z"/><path class="cls-1" d="M448.78,20.73l40.2,86a6.75,6.75,0,0,1-6.12,9.62h0a6.75,6.75,0,0,1-6.1-3.84l-12.94-27H426.26l-12.83,27.05a6.66,6.66,0,0,1-6,3.81h-.48a6.67,6.67,0,0,1-6-9.51l40.65-86.14a4,4,0,0,1,3.61-2.29h0A4,4,0,0,1,448.78,20.73Zm8.92,51.45L445.09,45.52l-12.6,26.66Z"/><path class="cls-1" d="M554.9,116.66h0a6.76,6.76,0,0,1-5.34-2.62L518,73.2h-2v36.7a6.76,6.76,0,0,1-6.76,6.76h-.25a6.76,6.76,0,0,1-6.76-6.76V25.59a6.88,6.88,0,0,1,6.88-6.87h14q3.91,0,6.38.14c1.64.1,3,.22,4,.37a20.31,20.31,0,0,1,2.32.43c.53.15,1,.27,1.52.36a26.32,26.32,0,0,1,14.64,8.84q5.79,6.81,5.79,17a26.64,26.64,0,0,1-3.91,14.49A23.24,23.24,0,0,1,548.91,66a26.3,26.3,0,0,1-6.45,4c-1.64.77-3,1.37-4,1.81a29,29,0,0,1-3.55,1.23l25.33,32.71A6.76,6.76,0,0,1,554.9,116.66Zm-25-56.79a13,13,0,0,0,4.06-.44c.77-.29,1.83-.77,3.19-1.45a6.69,6.69,0,0,0,2.53-2c.44-.67,1-1.54,1.81-2.6a14.21,14.21,0,0,0,2.18-7.68,13,13,0,0,0-2.18-7.25,17.27,17.27,0,0,0-2.46-3,16,16,0,0,0-2.46-2,12.22,12.22,0,0,0-6.23-1.31H516V59.72Z"/><path class="cls-1" d="M159,176.88a6.61,6.61,0,0,1-8.88-.89,23.23,23.23,0,0,0-4.41-4,13.69,13.69,0,0,0-7.1-1.89q-4.93,0-7.68,2.76a9.25,9.25,0,0,0-3,7,13.15,13.15,0,0,0,1.15,5.07,17.29,17.29,0,0,0,4.21,5.51,21.16,21.16,0,0,0,3,2.6q2.46,1.89,8.84,6.52,12.45,9.28,17.24,16.67a27.69,27.69,0,0,1,4.78,15.21q0,11-8.4,19.27a28.16,28.16,0,0,1-20.29,8.11,30.22,30.22,0,0,1-16.66-4.93,35.75,35.75,0,0,1-9.75-10,6.6,6.6,0,0,1,2.07-9.49l.4-.23a6.62,6.62,0,0,1,8.72,2A30.15,30.15,0,0,0,128.6,242a14.17,14.17,0,0,0,9,3.34,16.7,16.7,0,0,0,7.83-1.89,13.59,13.59,0,0,0,5.36-5.07,13.19,13.19,0,0,0,1.88-6.81,13.34,13.34,0,0,0-2.75-8q-4.22-6.08-15.5-14.48-12-9.13-15.07-13.33a25.13,25.13,0,0,1-5.36-15.5,23.67,23.67,0,0,1,3.18-12.32,21.71,21.71,0,0,1,3.92-4.93,25.75,25.75,0,0,1,5.21-3.76A24.65,24.65,0,0,1,138.89,156a25.18,25.18,0,0,1,13.33,3.62,33,33,0,0,1,8.47,7.05,6.56,6.56,0,0,1-1,9.61Z"/><path class="cls-1" d="M181.63,158.94h56.8a6.73,6.73,0,0,1,6.73,6.73h0a6.73,6.73,0,0,1-6.73,6.74H217.06v77.88a6.73,6.73,0,0,1-6.74,6.73h-.43a6.73,6.73,0,0,1-6.74-6.73V172.41H181.63a6.73,6.73,0,0,1-6.73-6.74h0A6.73,6.73,0,0,1,181.63,158.94Z"/><path class="cls-1" d="M317.33,158.94a6.73,6.73,0,0,1,6.74,6.73v51.94a106.26,106.26,0,0,1-.58,11.74,46.93,46.93,0,0,1-1.88,9.27Q319,246.89,311,253.11a30.13,30.13,0,0,1-19.12,6.23q-11.88,0-20.57-5.79A28.42,28.42,0,0,1,259.6,238a44.25,44.25,0,0,1-1.38-8q-.51-5.07-.5-12.46V165.67a6.73,6.73,0,0,1,6.73-6.73h.29a6.73,6.73,0,0,1,6.74,6.73v51.94c0,4.16,0,7.1.07,8.84a25.73,25.73,0,0,0,.22,3.33l.14.15a17.55,17.55,0,0,0,2.76,8.26,16.47,16.47,0,0,0,7.1,5.5,21.35,21.35,0,0,0,9.7,2.32,19.42,19.42,0,0,0,8-1.74,19.62,19.62,0,0,0,6.38-4.92,22.77,22.77,0,0,0,3.76-7.68,31.58,31.58,0,0,0,.58-4.2c.2-2,.29-5.31.29-9.86V165.67a6.73,6.73,0,0,1,6.74-6.73Z"/><path class="cls-1" d="M411.82,180.38q8,12.47,8,29.27,0,14.63-6.38,25.79a40.74,40.74,0,0,1-16.66,16.66q-10.14,5.35-28.25,5.36H343.35a6.73,6.73,0,0,1-6.73-6.73V166.24a6.72,6.72,0,0,1,6.73-6.72h14.86q21.15,0,31.15,3.47A42.79,42.79,0,0,1,411.82,180.38ZM350,244.27h8.55q19.41,0,26.37-2.32a27.67,27.67,0,0,0,15.36-11.59Q406,222,406,209.79q0-12.75-6.23-21.88A31.35,31.35,0,0,0,382.7,175.6Q374.15,173,354.3,173H350Z"/><path class="cls-1" d="M439.22,159.52h0a6.88,6.88,0,0,1,6.88,6.88v84.17a6.88,6.88,0,0,1-6.88,6.89h0a6.88,6.88,0,0,1-6.88-6.89V166.4A6.88,6.88,0,0,1,439.22,159.52Z"/><path class="cls-1" d="M546.74,171.25q14.93,14.92,14.93,36.51t-14.93,36.51q-14.93,14.92-36.36,14.93a50.62,50.62,0,0,1-36.8-14.93,49.12,49.12,0,0,1-14.92-36.07,52,52,0,0,1,6.8-26.08,50.67,50.67,0,0,1,44.05-25.65Q531.68,156.47,546.74,171.25Zm.87,36.51a38.46,38.46,0,0,0-4.78-19.12A38.48,38.48,0,0,0,509.94,170,36.71,36.71,0,0,0,491.4,175a39.09,39.09,0,0,0-13.76,13.76,38.13,38.13,0,0,0-4.93,19.42,37.37,37.37,0,0,0,2.75,14.63,35.78,35.78,0,0,0,8.11,12,37,37,0,0,0,26.37,10.86,39.24,39.24,0,0,0,19.13-4.92A35.21,35.21,0,0,0,542.69,227,37.41,37.41,0,0,0,547.61,207.76Z"/></svg>