<svg id="Layer_1" data-name="Layer 1" xmlns="http://www.w3.org/2000/svg" viewBox="0 0 2498.84 1144"><title>SteamLogo</title><path d="M2343.17,338.15a182,182,0,0,1-181.91,182c-100.47,0-180.82-81.48-180.82-182s81.47-181.95,182-181.95a182,182,0,0,1,181.95,182ZM2160.13,0C1974.07-.4,1822.8,149.88,1822,335.93L1611.05,638.4a203.41,203.41,0,0,0-25.66-1.13A256,256,0,0,0,1455.94,673L500.6,289.05A252.55,252.55,0,0,0,254,90.36C114.15,90.66.9,203.93.63,343.73.93,483.52,114.16,596.77,254,597.1A256.08,256.08,0,0,0,383.4,561.37l955.33,384A252.56,252.56,0,0,0,1585.39,1144c130.58,0,238.9-100.43,251.1-227.66l324.82-237.72c186.63.12,338-151.07,338.15-337.7v-.45c.13-186.64-151.07-338-337.7-338.16h-.45L2160.13,0Zm0,111.58c125.1.08,226.5,101.47,226.57,226.57s-101.47,226.5-226.57,226.57c-125.08-.1-226.45-101.48-226.52-226.57s101.44-226.47,226.52-226.57ZM252.77,156.25c71.41,0,132.8,40.17,164.09,98.2l-92.63-36.81c-74.77-26.8-157.38,10-186.36,83.7C107.68,375,142.27,458.72,214.82,491l78.12,31.24a163.65,163.65,0,0,1-40.17,4.49C150,527,66.57,443.85,66.37,341.1v-.72C66.17,237.63,149.3,154.18,252,154h.73v2.27Zm1331.48,546.9c102.7-.25,186.15,82.79,186.4,185.49v.86c.2,102.72-82.91,186.15-185.62,186.35h-.78a183.88,183.88,0,0,1-164.09-99.29c30.16,12.28,61.4,24.57,91.59,36.81a149.72,149.72,0,0,0,193.07-81.52A147.64,147.64,0,0,0,1622.45,740l-.2-.08-77-31.19a163.56,163.56,0,0,1,40.17-4.54l-1.18-1Z" transform="translate(-0.63 0)"/></svg>