<svg id="Layer_1" data-name="Layer 1" xmlns="http://www.w3.org/2000/svg" viewBox="0 0 233.82 233.82"><title>SwitchLogo</title><path id="path3348" d="M93.94,215.06h-34a41.49,41.49,0,0,1-41.14-41.14V59.9a41.28,41.28,0,0,1,41.14-41h34ZM111,0H59.9A59.9,59.9,0,0,0,0,59.9v114a59.9,59.9,0,0,0,59.9,59.9H111a1.74,1.74,0,0,0,1.8-1.68V1.68A1.74,1.74,0,0,0,111,0M36.32,70.12a22,22,0,1,0,22-22,22,22,0,0,0-22,22M182.46,105a23.64,23.64,0,1,1-23.69,23.58A23.62,23.62,0,0,1,182.46,105M137.84,233.82h36.08a59.9,59.9,0,0,0,59.9-59.9V59.9A59.9,59.9,0,0,0,173.92,0h-36.2a1.49,1.49,0,0,0-1.56,1.44v230.7a1.64,1.64,0,0,0,1.68,1.68"/></svg>