<?xml version="1.0" encoding="utf-8"?>
<!-- Generator: Adobe Illustrator 24.0.2, SVG Export Plug-In . SVG Version: 6.00 Build 0)  -->
<svg version="1.1" id="Layer_1" xmlns="http://www.w3.org/2000/svg" xmlns:xlink="http://www.w3.org/1999/xlink" x="0px" y="0px"
	 viewBox="0 0 256 258.8" style="enable-background:new 0 0 256 258.8;" xml:space="preserve">
<title>SteamLogo2</title>
<g>
	<path d="M241.6,64.8c-14.8,0-28.4-4.9-39.4-13.2c-12.6-9.5-21.6-23.4-24.8-39.4c-0.8-3.9-1.2-8-1.3-12.2h-42.3v115.5l-0.1,63.2
		c0,16.9-11,31.2-26.3,36.3c-4.5,1.5-9.2,2.2-14.2,1.9c-6.4-0.4-12.3-2.3-17.5-5.4c-11-6.6-18.5-18.5-18.7-32.2
		c-0.3-21.4,17-38.8,38.3-38.8c4.2,0,8.3,0.7,12,1.9v-31.5V99.5c-4-0.6-8-0.9-12.2-0.9c-23.4,0-45.2,9.7-60.9,27.2
		c-11.8,13.2-18.9,30.1-20,47.8c-1.4,23.2,7.1,45.4,23.6,61.6c2.4,2.4,5,4.6,7.6,6.7c14.1,10.9,31.4,16.8,49.7,16.8
		c4.1,0,8.2-0.3,12.2-0.9c17-2.5,32.7-10.3,45.1-22.6c15.2-15,23.6-35,23.7-56.3l-0.2-94.4c7.2,5.6,15.2,10.2,23.7,13.8
		c13.3,5.6,27.3,8.4,41.8,8.4V76.1V64.7C241.7,64.8,241.6,64.8,241.6,64.8L241.6,64.8z"/>
</g>
</svg>
