<svg id="Layer_1" data-name="Layer 1" xmlns="http://www.w3.org/2000/svg" viewBox="0 0 256 208.05"><title>TwitterLogo</title><path d="M256,25.45a104.92,104.92,0,0,1-30.17,8.27,52.64,52.64,0,0,0,23.1-29.06,105.29,105.29,0,0,1-33.35,12.75,52.57,52.57,0,0,0-89.5,47.9A149.14,149.14,0,0,1,17.82,10.44,52.58,52.58,0,0,0,34.08,80.56,52.45,52.45,0,0,1,10.29,74c0,.22,0,.44,0,.66a52.57,52.57,0,0,0,42.13,51.5,52.73,52.73,0,0,1-23.72.9,52.58,52.58,0,0,0,49.07,36.47A105.37,105.37,0,0,1,12.53,186,105.8,105.8,0,0,1,0,185.27a148.67,148.67,0,0,0,80.51,23.6c96.61,0,149.43-80,149.43-149.44,0-2.27-.05-4.54-.15-6.79A106.88,106.88,0,0,0,256,25.45" transform="translate(0 -0.82)"/></svg>