<svg id="svg2" xmlns="http://www.w3.org/2000/svg" viewBox="0 0 44.56 44.61"><title>xboxlogo</title><g id="g26"><g id="g6"><path id="path2" d="M22.28,0A21.65,21.65,0,0,0,10.67,3.28c-.06,0-.06.05-.06.11s.06.06.11.06c4.34-1,10.89,2.77,11.5,3.16h.11C23,6.22,29.5,2.5,33.83,3.45c.06,0,.11,0,.11-.06s0-.11,0-.11A21.65,21.65,0,0,0,22.28,0Zm14.9,6.26c-1.1.07-3.67.92-8.79,6l-.06.06a.05.05,0,0,0,.06.05c4.5,5.34,13.17,18.06,11.5,23.34v.11s.11,0,.11-.06A22.25,22.25,0,0,0,37.94,6.39c0-.06,0-.06-.11-.06A1.86,1.86,0,0,0,37.18,6.26Zm-29.83,0a1.46,1.46,0,0,0-.68.1c-.06,0-.06.05-.11.05a22.34,22.34,0,0,0-2,29.34s.05,0,.11,0,0,0,0-.11c-1.73-5.28,7-18,11.5-23.33l0-.06c0-.05,0-.05,0-.05C11,7.19,8.48,6.33,7.35,6.29Zm14.93,11.6s-.06,0-.06.05C15.56,23,4.11,35.56,7.61,39.11a22.3,22.3,0,0,0,29.33,0C40.39,35.56,29,23,22.33,17.94A0,0,0,0,0,22.28,17.89Z"/></g></g></svg>